<svg version="1.1" id="Layer_1" xmlns="http://www.w3.org/2000/svg" xmlns:xlink="http://www.w3.org/1999/xlink" x="0px" y="0px"
	 width="100%" viewBox="0 0 1024 1024" enable-background="new 0 0 1024 1024" xml:space="preserve">
<path fill="#000000" opacity="1.000000" stroke="none" 
	d="
M515.936890,820.021301 
	C487.721222,819.608093 460.225891,817.221619 433.537445,809.153259 
	C417.779602,804.389343 402.811554,797.890930 391.272614,785.548279 
	C377.768829,771.104065 372.674072,753.368713 372.791351,734.138672 
	C372.954529,707.373657 381.716980,683.413818 398.911896,662.881836 
	C412.455872,646.709351 428.925781,633.803528 448.031342,624.969849 
	C479.281586,610.520691 484.531464,573.104126 471.387573,549.087158 
	C463.866577,535.344421 454.238098,522.894409 446.598663,509.193054 
	C438.119476,493.985565 430.199677,478.511627 427.758453,461.095825 
	C423.797119,432.835724 432.584259,408.544342 452.258270,388.081299 
	C461.083405,378.902191 471.745697,372.552429 483.614807,368.123627 
	C485.151733,367.550140 486.863708,367.294220 487.986694,365.867249 
	C488.480042,364.295227 487.468384,363.299805 486.490540,362.445587 
	C470.625580,348.586914 453.326019,337.013245 432.500092,332.345032 
	C417.795990,329.049042 403.584442,331.624176 390.994507,340.327637 
	C369.600800,355.117157 358.275757,375.459534 356.844879,401.619476 
	C355.596832,424.437347 362.312866,445.336578 370.552094,466.025299 
	C378.002808,484.733887 385.955994,503.237823 390.631927,522.960388 
	C399.088959,558.630859 395.582031,593.349060 383.436035,627.576965 
	C376.484467,647.166687 367.452942,665.689209 355.192810,682.468994 
	C344.621399,696.937500 331.651062,708.370789 313.117584,711.431580 
	C291.195007,715.051941 274.160065,705.744690 260.825317,689.679199 
	C236.939285,660.901733 221.977310,627.367920 211.577698,591.701660 
	C201.744156,557.976807 197.793045,523.445862 199.859497,488.455811 
	C203.490143,426.980103 222.583420,370.731232 259.076935,320.781525 
	C292.222382,275.414459 334.469757,241.163467 385.624329,217.933884 
	C409.245026,207.207581 433.970856,199.705139 459.452911,195.376968 
	C492.624542,189.742737 525.966125,189.173676 559.414734,194.354340 
	C633.022400,205.755035 694.737854,239.278671 745.083008,293.759857 
	C781.193604,332.837158 805.350891,378.589264 817.736633,430.335571 
	C826.887939,468.569275 829.196594,507.376984 824.103088,546.375977 
	C817.812256,594.541992 801.147217,639.017029 773.653625,679.129333 
	C736.381836,733.507751 686.913574,773.088623 625.959717,798.036743 
	C590.942261,812.369202 554.314209,819.569763 515.936890,820.021301 
M482.089355,331.342133 
	C489.980957,336.940613 497.990021,342.563812 504.403473,349.762543 
	C512.170715,358.480865 520.699219,363.270905 532.754211,365.542175 
	C578.069580,374.080139 607.727844,422.488525 596.517578,467.273529 
	C592.186951,484.574554 584.259949,500.344513 575.253845,515.575439 
	C559.272400,542.603149 540.408813,567.572021 520.327759,591.656677 
	C518.180725,594.231689 515.234131,596.399902 514.699463,600.094971 
	C516.860352,601.474792 518.865845,600.852295 520.719849,600.334595 
	C529.534851,597.872925 538.364136,595.442383 547.096741,592.708374 
	C598.450989,576.630249 640.321716,547.888184 667.383118,500.404724 
	C686.179321,467.423737 695.078918,432.056793 688.626953,393.884399 
	C683.728638,364.903870 666.197937,345.921204 638.830261,339.904724 
	C625.552917,336.985870 612.073975,336.070282 598.659485,338.581879 
	C594.550476,339.351196 592.601257,338.040436 590.447327,335.110809 
	C582.415649,324.186859 573.167236,314.383545 562.515198,305.966766 
	C548.406799,294.818909 532.522522,287.818481 514.401062,287.482849 
	C492.154938,287.070862 473.994049,297.194672 457.720581,311.296295 
	C454.102783,314.431244 454.654724,316.575806 459.199860,318.641724 
	C466.953674,322.166168 474.356079,326.306122 482.089355,331.342133 
M684.337341,598.844788 
	C697.562866,580.584106 707.362000,560.642273 713.120422,538.838318 
	C715.789307,528.732971 718.621033,518.530396 716.088074,507.852386 
	C715.498901,505.368866 714.535522,503.484283 711.756409,503.086700 
	C708.761108,502.658234 706.545105,503.636658 705.251648,506.479828 
	C704.493225,508.146912 703.674744,509.787781 702.848267,511.422760 
	C699.848694,517.356995 697.387756,523.657227 693.696716,529.126404 
	C688.071289,537.461792 681.181702,544.848450 674.502380,552.408203 
	C666.487061,561.479980 656.587219,566.516479 645.442444,569.831116 
	C640.112000,571.416504 635.870667,574.197632 632.726013,578.856750 
	C627.776855,586.189331 622.507751,593.326965 615.070679,598.375427 
	C609.397949,602.226257 605.955383,609.169800 599.358276,611.263916 
	C591.957336,613.613220 586.000427,617.478210 580.356384,622.616089 
	C571.320496,630.841736 559.920410,635.740112 550.129333,642.835999 
	C537.225403,652.187805 523.239990,654.120544 508.383881,651.262512 
	C496.719910,649.018616 485.337982,648.537476 473.803864,651.509155 
	C469.783112,652.545105 465.631073,653.083740 461.527954,653.785034 
	C453.837097,655.099365 450.411713,658.258789 449.188721,665.929871 
	C447.852966,674.308105 446.783386,682.705811 446.818054,691.252808 
	C446.853119,699.896973 449.066284,701.617371 459.281555,701.491272 
	C460.735046,701.473328 462.214111,700.874023 463.624115,700.380310 
	C489.190887,691.427979 515.907959,687.542969 542.400391,682.817749 
	C567.466492,678.346802 591.557129,671.149902 614.241882,659.567139 
	C642.348450,645.216064 665.411621,624.943237 684.337341,598.844788 
z"/>
</svg>